<svg width="21" height="22" viewBox="0 0 21 22" fill="none" xmlns="http://www.w3.org/2000/svg">
<path d="M18.7068 2.08255H16.2891V1.27662C16.2891 1.06288 16.2042 0.857891 16.053 0.706752C15.9019 0.555612 15.6969 0.470703 15.4831 0.470703C15.2694 0.470703 15.0644 0.555612 14.9133 0.706752C14.7621 0.857891 14.6772 1.06288 14.6772 1.27662V2.08255H6.61801V1.27662C6.61801 1.06288 6.5331 0.857891 6.38196 0.706752C6.23082 0.555612 6.02583 0.470703 5.81209 0.470703C5.59835 0.470703 5.39336 0.555612 5.24222 0.706752C5.09108 0.857891 5.00617 1.06288 5.00617 1.27662V2.08255H2.5884C2.16105 2.08297 1.75131 2.25292 1.44913 2.55511C1.14694 2.8573 0.976985 3.26703 0.976562 3.69439V19.8128C0.976984 20.2402 1.14694 20.6499 1.44913 20.9521C1.75131 21.2543 2.16105 21.4242 2.5884 21.4247H18.7068C19.1342 21.4242 19.5439 21.2543 19.8461 20.9521C20.1483 20.6499 20.3182 20.2402 20.3187 19.8128V3.69439C20.3182 3.26703 20.1483 2.8573 19.8461 2.55511C19.5439 2.25292 19.1342 2.08297 18.7068 2.08255ZM18.7068 6.91807H2.5884V3.69439H5.00617V4.50031C5.00617 4.71405 5.09108 4.91904 5.24222 5.07018C5.39336 5.22132 5.59835 5.30623 5.81209 5.30623C6.02583 5.30623 6.23082 5.22132 6.38196 5.07018C6.5331 4.91904 6.61801 4.71405 6.61801 4.50031V3.69439H14.6772V4.50031C14.6772 4.71405 14.7621 4.91904 14.9133 5.07018C15.0644 5.22132 15.2694 5.30623 15.4831 5.30623C15.6969 5.30623 15.9019 5.22132 16.053 5.07018C16.2042 4.91904 16.2891 4.71405 16.2891 4.50031V3.69439H18.7068V6.91807Z" fill="#E41C26"/>
</svg>
