<svg width="62" height="62" viewBox="0 0 62 62" fill="none" xmlns="http://www.w3.org/2000/svg">
<g clip-path="url(#clip0_15_1792)">
<path d="M31.0001 62.0001C48.1209 62.0001 62.0001 48.1209 62.0001 31.0001C62.0001 13.8792 48.1209 0 31.0001 0C13.8792 0 0 13.8792 0 31.0001C0 48.1209 13.8792 62.0001 31.0001 62.0001Z" fill="#FE0404"/>
<path d="M62.0001 30.9999C62.0001 48.05 48.0501 62 31 62C21.1188 62 12.4001 57.5437 6.78125 50.375C12.0125 54.6375 18.7938 57.1563 26.1562 57.1563C43.2063 57.1563 57.1563 43.2063 57.1563 26.1562C57.1563 18.7938 54.6375 12.0125 50.375 6.78125C57.5439 12.3998 62.0001 21.1186 62.0001 30.9999Z" fill="#FE0404"/>
<path d="M47.8585 22.0872L27.7085 44.1748C26.3522 45.7248 24.0272 45.7248 22.6709 44.1748L14.1459 34.681C12.9834 33.3247 12.9834 31.1935 14.3396 29.8372C15.6959 28.6748 17.8271 28.6748 19.1834 30.031L25.1897 36.8122L42.8209 17.631C44.1772 16.2747 46.3084 16.081 47.6647 17.4373C49.0209 18.5997 49.0209 20.9248 47.8585 22.0872Z" fill="white"/>
</g>
<defs>
<clipPath id="clip0_15_1792">
<rect width="62" height="62" fill="white"/>
</clipPath>
</defs>
</svg>
