<svg width="18" height="24" viewBox="0 0 18 24" fill="none" xmlns="http://www.w3.org/2000/svg">
<path d="M8.89248 0.716797C6.54215 0.719586 4.28889 1.65448 2.62696 3.31641C0.96503 4.97834 0.0301325 7.23161 0.0273438 9.58193C0.0273437 17.1673 8.08655 22.8969 8.4297 23.137C8.56541 23.2318 8.72695 23.2826 8.89248 23.2826C9.058 23.2826 9.21954 23.2318 9.35525 23.137C9.6984 22.8969 17.7576 17.1673 17.7576 9.58193C17.7548 7.23161 16.8199 4.97834 15.158 3.31641C13.4961 1.65448 11.2428 0.719585 8.89248 0.716797ZM8.89307 6.35854C9.53065 6.35854 10.1539 6.5476 10.684 6.90183C11.2142 7.25605 11.6274 7.75952 11.8714 8.34857C12.1154 8.93762 12.1792 9.5858 12.0548 10.2111C11.9304 10.8365 11.6234 11.4109 11.1726 11.8617C10.7217 12.3126 10.1473 12.6196 9.52197 12.744C8.89664 12.8684 8.24847 12.8045 7.65941 12.5605C7.07036 12.3165 6.56689 11.9033 6.21267 11.3732C5.85845 10.8431 5.66938 10.2198 5.66938 9.58222C5.66937 9.15888 5.75274 8.73968 5.91474 8.34856C6.07675 7.95744 6.3142 7.60205 6.61355 7.3027C6.9129 7.00336 7.26828 6.7659 7.6594 6.6039C8.05052 6.4419 8.46972 6.35852 8.89307 6.35854Z" fill="#E41C26"/>
</svg>
