<svg width="18" height="18" viewBox="0 0 18 18" fill="none" xmlns="http://www.w3.org/2000/svg">
<path d="M16.4906 12.0682L12.4576 10.3398C12.247 10.2491 12.0171 10.2126 11.7888 10.2336C11.5605 10.2546 11.3411 10.3324 11.1506 10.4599L8.9942 11.8973C7.6763 11.2563 6.60963 10.1943 5.96282 8.87925L5.96299 8.87908L7.39535 6.69043C7.52003 6.50043 7.59567 6.28248 7.61551 6.05609C7.63535 5.8297 7.59877 5.60192 7.50904 5.39312L5.77901 1.35665C5.66124 1.08265 5.45789 0.854172 5.19941 0.70542C4.94092 0.556668 4.6412 0.495646 4.34513 0.531491C3.18172 0.681076 2.11255 1.24909 1.33737 2.12942C0.562184 3.00976 0.134002 4.14219 0.132812 5.31518C0.132812 12.1522 5.69509 17.7145 12.5321 17.7145C13.7051 17.7133 14.8376 17.2851 15.7179 16.5099C16.5983 15.7347 17.1663 14.6655 17.3158 13.5021C17.3516 13.206 17.2905 12.9063 17.1418 12.6479C16.993 12.3894 16.7646 12.186 16.4906 12.0682Z" fill="#E41C26"/>
</svg>
